G04*
G04 #@! TF.GenerationSoftware,Altium Limited,Altium Designer,18.1.7 (191)*
G04*
G04 Layer_Color=65535*
%FSLAX44Y44*%
%MOMM*%
G71*
G01*
G75*
%ADD10C,0.2540*%
%ADD11C,0.2000*%
D10*
X-86360Y-273050D02*
G03*
X-86360Y-273050I-1270J0D01*
G01*
X-93454Y-177800D02*
G03*
X-93454Y-177800I-1796J0D01*
G01*
X-77470Y-238960D02*
X-72390D01*
X-77470Y-263960D02*
X-72390D01*
X-58930Y-252730D02*
X-58930Y-250190D01*
X-90930D02*
X-90930Y-252730D01*
X-104140Y-120650D02*
X-38100D01*
Y-186690D02*
Y-120650D01*
X-95250Y-186690D02*
X-38100D01*
X-104140Y-177800D02*
X-95250Y-186690D01*
X-104140Y-177800D02*
Y-120650D01*
X203200Y-184150D02*
Y-171450D01*
X-198120Y-134620D02*
Y-121920D01*
X71434Y-158159D02*
X69768Y-156493D01*
X66436D01*
X64770Y-158159D01*
Y-164824D01*
X66436Y-166490D01*
X69768D01*
X71434Y-164824D01*
X79765Y-166490D02*
Y-156493D01*
X74767Y-161492D01*
X81431D01*
X84763Y-158159D02*
X86430Y-156493D01*
X89762D01*
X91428Y-158159D01*
Y-164824D01*
X89762Y-166490D01*
X86430D01*
X84763Y-164824D01*
Y-158159D01*
X-23307Y-207061D02*
X-24974Y-205395D01*
X-28306D01*
X-29972Y-207061D01*
Y-213726D01*
X-28306Y-215392D01*
X-24974D01*
X-23307Y-213726D01*
X-19975Y-207061D02*
X-18309Y-205395D01*
X-14977D01*
X-13311Y-207061D01*
Y-208727D01*
X-14977Y-210394D01*
X-16643D01*
X-14977D01*
X-13311Y-212060D01*
Y-213726D01*
X-14977Y-215392D01*
X-18309D01*
X-19975Y-213726D01*
X-3314Y-215392D02*
X-9978D01*
X-3314Y-208727D01*
Y-207061D01*
X-4980Y-205395D01*
X-8312D01*
X-9978Y-207061D01*
X-6036Y-260909D02*
X-7702Y-259243D01*
X-11034D01*
X-12700Y-260909D01*
Y-267574D01*
X-11034Y-269240D01*
X-7702D01*
X-6036Y-267574D01*
X-2703Y-260909D02*
X-1037Y-259243D01*
X2295D01*
X3961Y-260909D01*
Y-262575D01*
X2295Y-264242D01*
X629D01*
X2295D01*
X3961Y-265908D01*
Y-267574D01*
X2295Y-269240D01*
X-1037D01*
X-2703Y-267574D01*
X7294Y-269240D02*
X10626D01*
X8960D01*
Y-259243D01*
X7294Y-260909D01*
X16825Y-207061D02*
X15158Y-205395D01*
X11826D01*
X10160Y-207061D01*
Y-213726D01*
X11826Y-215392D01*
X15158D01*
X16825Y-213726D01*
X20157Y-207061D02*
X21823Y-205395D01*
X25155D01*
X26821Y-207061D01*
Y-208727D01*
X25155Y-210394D01*
X23489D01*
X25155D01*
X26821Y-212060D01*
Y-213726D01*
X25155Y-215392D01*
X21823D01*
X20157Y-213726D01*
X30154Y-207061D02*
X31820Y-205395D01*
X35152D01*
X36818Y-207061D01*
Y-213726D01*
X35152Y-215392D01*
X31820D01*
X30154Y-213726D01*
Y-207061D01*
X-4004Y-99619D02*
X-5670Y-97953D01*
X-9002D01*
X-10668Y-99619D01*
Y-106284D01*
X-9002Y-107950D01*
X-5670D01*
X-4004Y-106284D01*
X5993Y-107950D02*
X-671D01*
X5993Y-101285D01*
Y-99619D01*
X4327Y-97953D01*
X995D01*
X-671Y-99619D01*
X9326Y-106284D02*
X10992Y-107950D01*
X14324D01*
X15990Y-106284D01*
Y-99619D01*
X14324Y-97953D01*
X10992D01*
X9326Y-99619D01*
Y-101285D01*
X10992Y-102952D01*
X15990D01*
X26985Y-151689D02*
X25318Y-150023D01*
X21986D01*
X20320Y-151689D01*
Y-158354D01*
X21986Y-160020D01*
X25318D01*
X26985Y-158354D01*
X36981Y-160020D02*
X30317D01*
X36981Y-153356D01*
Y-151689D01*
X35315Y-150023D01*
X31983D01*
X30317Y-151689D01*
X40314D02*
X41980Y-150023D01*
X45312D01*
X46978Y-151689D01*
Y-153356D01*
X45312Y-155022D01*
X46978Y-156688D01*
Y-158354D01*
X45312Y-160020D01*
X41980D01*
X40314Y-158354D01*
Y-156688D01*
X41980Y-155022D01*
X40314Y-153356D01*
Y-151689D01*
X41980Y-155022D02*
X45312D01*
X50606Y-99619D02*
X48940Y-97953D01*
X45608D01*
X43942Y-99619D01*
Y-106284D01*
X45608Y-107950D01*
X48940D01*
X50606Y-106284D01*
X60603Y-107950D02*
X53939D01*
X60603Y-101285D01*
Y-99619D01*
X58937Y-97953D01*
X55605D01*
X53939Y-99619D01*
X63936Y-97953D02*
X70600D01*
Y-99619D01*
X63936Y-106284D01*
Y-107950D01*
X-143195Y-60249D02*
X-144862Y-58583D01*
X-148194D01*
X-149860Y-60249D01*
Y-66914D01*
X-148194Y-68580D01*
X-144862D01*
X-143195Y-66914D01*
X-133199Y-68580D02*
X-139863D01*
X-133199Y-61915D01*
Y-60249D01*
X-134865Y-58583D01*
X-138197D01*
X-139863Y-60249D01*
X-123202Y-58583D02*
X-126534Y-60249D01*
X-129866Y-63582D01*
Y-66914D01*
X-128200Y-68580D01*
X-124868D01*
X-123202Y-66914D01*
Y-65248D01*
X-124868Y-63582D01*
X-129866D01*
X-174946Y-107239D02*
X-176612Y-105573D01*
X-179944D01*
X-181610Y-107239D01*
Y-113904D01*
X-179944Y-115570D01*
X-176612D01*
X-174946Y-113904D01*
X-164949Y-115570D02*
X-171613D01*
X-164949Y-108905D01*
Y-107239D01*
X-166615Y-105573D01*
X-169947D01*
X-171613Y-107239D01*
X-154952Y-105573D02*
X-161616D01*
Y-110572D01*
X-158284Y-108905D01*
X-156618D01*
X-154952Y-110572D01*
Y-113904D01*
X-156618Y-115570D01*
X-159950D01*
X-161616Y-113904D01*
X-223206Y-71679D02*
X-224872Y-70013D01*
X-228204D01*
X-229870Y-71679D01*
Y-78344D01*
X-228204Y-80010D01*
X-224872D01*
X-223206Y-78344D01*
X-213209Y-80010D02*
X-219873D01*
X-213209Y-73345D01*
Y-71679D01*
X-214875Y-70013D01*
X-218207D01*
X-219873Y-71679D01*
X-204878Y-80010D02*
Y-70013D01*
X-209876Y-75012D01*
X-203212D01*
X-168088Y-143307D02*
X-169754Y-141641D01*
X-173086D01*
X-174752Y-143307D01*
Y-149972D01*
X-173086Y-151638D01*
X-169754D01*
X-168088Y-149972D01*
X-158091Y-151638D02*
X-164755D01*
X-158091Y-144973D01*
Y-143307D01*
X-159757Y-141641D01*
X-163089D01*
X-164755Y-143307D01*
X-154758D02*
X-153092Y-141641D01*
X-149760D01*
X-148094Y-143307D01*
Y-144973D01*
X-149760Y-146640D01*
X-151426D01*
X-149760D01*
X-148094Y-148306D01*
Y-149972D01*
X-149760Y-151638D01*
X-153092D01*
X-154758Y-149972D01*
X-193995Y-199949D02*
X-195662Y-198283D01*
X-198994D01*
X-200660Y-199949D01*
Y-206614D01*
X-198994Y-208280D01*
X-195662D01*
X-193995Y-206614D01*
X-183999Y-208280D02*
X-190663D01*
X-183999Y-201616D01*
Y-199949D01*
X-185665Y-198283D01*
X-188997D01*
X-190663Y-199949D01*
X-174002Y-208280D02*
X-180666D01*
X-174002Y-201616D01*
Y-199949D01*
X-175668Y-198283D01*
X-179000D01*
X-180666Y-199949D01*
X-219396Y-141529D02*
X-221062Y-139863D01*
X-224394D01*
X-226060Y-141529D01*
Y-148194D01*
X-224394Y-149860D01*
X-221062D01*
X-219396Y-148194D01*
X-209399Y-149860D02*
X-216063D01*
X-209399Y-143195D01*
Y-141529D01*
X-211065Y-139863D01*
X-214397D01*
X-216063Y-141529D01*
X-206066Y-149860D02*
X-202734D01*
X-204400D01*
Y-139863D01*
X-206066Y-141529D01*
X-165576Y126441D02*
X-167242Y128107D01*
X-170574D01*
X-172240Y126441D01*
Y119776D01*
X-170574Y118110D01*
X-167242D01*
X-165576Y119776D01*
X-162243Y118110D02*
X-158911D01*
X-160577D01*
Y128107D01*
X-162243Y126441D01*
X-153913D02*
X-152247Y128107D01*
X-148914D01*
X-147248Y126441D01*
Y124775D01*
X-148914Y123108D01*
X-150580D01*
X-148914D01*
X-147248Y121442D01*
Y119776D01*
X-148914Y118110D01*
X-152247D01*
X-153913Y119776D01*
X-154626Y80721D02*
X-156292Y82387D01*
X-159624D01*
X-161290Y80721D01*
Y74056D01*
X-159624Y72390D01*
X-156292D01*
X-154626Y74056D01*
X-151293Y72390D02*
X-147961D01*
X-149627D01*
Y82387D01*
X-151293Y80721D01*
X-136298Y72390D02*
X-142963D01*
X-136298Y79054D01*
Y80721D01*
X-137964Y82387D01*
X-141296D01*
X-142963Y80721D01*
X-121606Y126441D02*
X-123272Y128107D01*
X-126604D01*
X-128270Y126441D01*
Y119776D01*
X-126604Y118110D01*
X-123272D01*
X-121606Y119776D01*
X-118273Y118110D02*
X-114941D01*
X-116607D01*
Y128107D01*
X-118273Y126441D01*
X-109943Y118110D02*
X-106610D01*
X-108276D01*
Y128107D01*
X-109943Y126441D01*
X-116525Y160731D02*
X-118192Y162397D01*
X-121524D01*
X-123190Y160731D01*
Y154066D01*
X-121524Y152400D01*
X-118192D01*
X-116525Y154066D01*
X-113193Y152400D02*
X-109861D01*
X-111527D01*
Y162397D01*
X-113193Y160731D01*
X-104863D02*
X-103196Y162397D01*
X-99864D01*
X-98198Y160731D01*
Y154066D01*
X-99864Y152400D01*
X-103196D01*
X-104863Y154066D01*
Y160731D01*
X-160956Y160391D02*
X-162622Y162057D01*
X-165954D01*
X-167620Y160391D01*
Y153726D01*
X-165954Y152060D01*
X-162622D01*
X-160956Y153726D01*
X-157623D02*
X-155957Y152060D01*
X-152625D01*
X-150959Y153726D01*
Y160391D01*
X-152625Y162057D01*
X-155957D01*
X-157623Y160391D01*
Y158724D01*
X-155957Y157058D01*
X-150959D01*
X-139385Y160731D02*
X-141052Y162397D01*
X-144384D01*
X-146050Y160731D01*
Y154066D01*
X-144384Y152400D01*
X-141052D01*
X-139385Y154066D01*
X-136053Y160731D02*
X-134387Y162397D01*
X-131055D01*
X-129389Y160731D01*
Y159065D01*
X-131055Y157398D01*
X-129389Y155732D01*
Y154066D01*
X-131055Y152400D01*
X-134387D01*
X-136053Y154066D01*
Y155732D01*
X-134387Y157398D01*
X-136053Y159065D01*
Y160731D01*
X-134387Y157398D02*
X-131055D01*
X-130810Y-233843D02*
X-124145Y-243840D01*
Y-233843D02*
X-130810Y-243840D01*
X-120813Y-233843D02*
X-114149D01*
X-117481D01*
Y-243840D01*
X-110816D02*
X-107484D01*
X-109150D01*
Y-233843D01*
X-110816Y-235509D01*
X189230Y-162052D02*
Y-152055D01*
X194228D01*
X195895Y-153721D01*
Y-157054D01*
X194228Y-158720D01*
X189230D01*
X192562D02*
X195895Y-162052D01*
X204225D02*
Y-152055D01*
X199227Y-157054D01*
X205891D01*
X-211996Y-112522D02*
Y-102525D01*
X-206998D01*
X-205331Y-104191D01*
Y-107524D01*
X-206998Y-109190D01*
X-211996D01*
X-208664D02*
X-205331Y-112522D01*
X-201999Y-104191D02*
X-200333Y-102525D01*
X-197001D01*
X-195335Y-104191D01*
Y-105857D01*
X-197001Y-107524D01*
X-198667D01*
X-197001D01*
X-195335Y-109190D01*
Y-110856D01*
X-197001Y-112522D01*
X-200333D01*
X-201999Y-110856D01*
X94488Y-86777D02*
X97820D01*
X96154D01*
Y-96774D01*
X94488D01*
X97820D01*
X109483Y-88443D02*
X107817Y-86777D01*
X104485D01*
X102819Y-88443D01*
Y-95108D01*
X104485Y-96774D01*
X107817D01*
X109483Y-95108D01*
X119480Y-86777D02*
X112815D01*
Y-91776D01*
X116148Y-90110D01*
X117814D01*
X119480Y-91776D01*
Y-95108D01*
X117814Y-96774D01*
X114482D01*
X112815Y-95108D01*
X128524Y79339D02*
X131856D01*
X130190D01*
Y69342D01*
X128524D01*
X131856D01*
X143519Y77673D02*
X141853Y79339D01*
X138521D01*
X136855Y77673D01*
Y71008D01*
X138521Y69342D01*
X141853D01*
X143519Y71008D01*
X151850Y69342D02*
Y79339D01*
X146851Y74340D01*
X153516D01*
X-81026Y194909D02*
X-77694D01*
X-79360D01*
Y184912D01*
X-81026D01*
X-77694D01*
X-66031Y193243D02*
X-67697Y194909D01*
X-71029D01*
X-72695Y193243D01*
Y186578D01*
X-71029Y184912D01*
X-67697D01*
X-66031Y186578D01*
X-62699Y193243D02*
X-61032Y194909D01*
X-57700D01*
X-56034Y193243D01*
Y191576D01*
X-57700Y189910D01*
X-59366D01*
X-57700D01*
X-56034Y188244D01*
Y186578D01*
X-57700Y184912D01*
X-61032D01*
X-62699Y186578D01*
X-17780Y-186853D02*
X-14448D01*
X-16114D01*
Y-196850D01*
X-17780D01*
X-14448D01*
X-2785Y-188519D02*
X-4451Y-186853D01*
X-7783D01*
X-9449Y-188519D01*
Y-195184D01*
X-7783Y-196850D01*
X-4451D01*
X-2785Y-195184D01*
X547Y-196850D02*
X3880D01*
X2214D01*
Y-186853D01*
X547Y-188519D01*
X-225746Y-6909D02*
X-227412Y-5243D01*
X-230744D01*
X-232410Y-6909D01*
Y-13574D01*
X-230744Y-15240D01*
X-227412D01*
X-225746Y-13574D01*
X-222413Y-15240D02*
Y-8576D01*
X-219081Y-5243D01*
X-215749Y-8576D01*
Y-15240D01*
Y-10242D01*
X-222413D01*
X-212416Y-15240D02*
Y-5243D01*
X-209084Y-8576D01*
X-205752Y-5243D01*
Y-15240D01*
X194116Y-86665D02*
X192450Y-84999D01*
X189118D01*
X187452Y-86665D01*
Y-93330D01*
X189118Y-94996D01*
X192450D01*
X194116Y-93330D01*
X204113Y-84999D02*
X197449D01*
Y-89998D01*
X200781Y-88331D01*
X202447D01*
X204113Y-89998D01*
Y-93330D01*
X202447Y-94996D01*
X199115D01*
X197449Y-93330D01*
X214110Y-94996D02*
X207446D01*
X214110Y-88331D01*
Y-86665D01*
X212444Y-84999D01*
X209112D01*
X207446Y-86665D01*
X220786Y-37135D02*
X219120Y-35469D01*
X215788D01*
X214122Y-37135D01*
Y-43800D01*
X215788Y-45466D01*
X219120D01*
X220786Y-43800D01*
X230783Y-35469D02*
X224119D01*
Y-40468D01*
X227451Y-38802D01*
X229117D01*
X230783Y-40468D01*
Y-43800D01*
X229117Y-45466D01*
X225785D01*
X224119Y-43800D01*
X234116Y-45466D02*
X237448D01*
X235782D01*
Y-35469D01*
X234116Y-37135D01*
X-147873Y-194107D02*
X-149540Y-192441D01*
X-152872D01*
X-154538Y-194107D01*
Y-200772D01*
X-152872Y-202438D01*
X-149540D01*
X-147873Y-200772D01*
X-144541Y-194107D02*
X-142875Y-192441D01*
X-139543D01*
X-137877Y-194107D01*
Y-195774D01*
X-139543Y-197440D01*
X-141209D01*
X-139543D01*
X-137877Y-199106D01*
Y-200772D01*
X-139543Y-202438D01*
X-142875D01*
X-144541Y-200772D01*
X-129546Y-202438D02*
Y-192441D01*
X-134544Y-197440D01*
X-127880D01*
X-8576Y-278689D02*
X-10242Y-277023D01*
X-13574D01*
X-15240Y-278689D01*
Y-285354D01*
X-13574Y-287020D01*
X-10242D01*
X-8576Y-285354D01*
X-5243Y-278689D02*
X-3577Y-277023D01*
X-245D01*
X1421Y-278689D01*
Y-280355D01*
X-245Y-282022D01*
X-1911D01*
X-245D01*
X1421Y-283688D01*
Y-285354D01*
X-245Y-287020D01*
X-3577D01*
X-5243Y-285354D01*
X4754Y-278689D02*
X6420Y-277023D01*
X9752D01*
X11418Y-278689D01*
Y-280355D01*
X9752Y-282022D01*
X8086D01*
X9752D01*
X11418Y-283688D01*
Y-285354D01*
X9752Y-287020D01*
X6420D01*
X4754Y-285354D01*
D11*
X223930Y-74308D02*
G03*
X253071Y-93942I19910J-1892D01*
G01*
X263821Y-75323D02*
G03*
X232246Y-59903I-19981J-877D01*
G01*
X197260Y-123838D02*
G03*
X226401Y-143472I19910J-1892D01*
G01*
X237151Y-124853D02*
G03*
X205576Y-109433I-19981J-877D01*
G01*
X41910Y243840D02*
Y269240D01*
X-59690Y243840D02*
X41910D01*
X-59690Y269240D02*
X41910D01*
X-59690Y243840D02*
Y269240D01*
X186530Y145034D02*
X202857Y164492D01*
X89243Y226668D02*
X186530Y145034D01*
X105570Y246126D02*
X202857Y164492D01*
X89243Y226668D02*
X105570Y246126D01*
X249352Y48284D02*
X271349Y60984D01*
X211252Y114276D02*
X249352Y48284D01*
X211252Y114276D02*
X233249Y126975D01*
X271349Y60984D01*
X-196489Y155482D02*
X-178528Y137521D01*
X-250371Y65679D02*
X-178528Y137521D01*
X-268331Y83639D02*
X-196489Y155482D01*
X-268331Y83639D02*
X-250371Y65679D01*
X113540Y-107580D02*
X145540D01*
Y-156580D02*
Y-107580D01*
X113540Y-156580D02*
X145540D01*
X113540D02*
Y-107580D01*
X94790Y-106280D02*
X110040D01*
X151390Y57920D02*
X186430D01*
Y-7120D02*
Y57920D01*
X151390Y-7120D02*
X186430D01*
X151390D02*
Y57920D01*
X128660Y56550D02*
X143160D01*
X-58160Y173490D02*
X-23120D01*
Y108450D02*
Y173490D01*
X-58160Y108450D02*
X-23120D01*
X-58160D02*
Y173490D01*
X-80890Y172120D02*
X-66390D01*
M02*
