G04*
G04 #@! TF.GenerationSoftware,Altium Limited,Altium Designer,18.1.7 (191)*
G04*
G04 Layer_Color=32768*
%FSLAX44Y44*%
%MOMM*%
G71*
G01*
G75*
%ADD49C,0.1000*%
%ADD50C,0.0500*%
D49*
X69470Y-146080D02*
X85470D01*
X69470Y-118080D02*
X85470D01*
X69470Y-146080D02*
Y-118080D01*
X85470Y-146080D02*
Y-118080D01*
X77470Y-137080D02*
Y-127080D01*
X72470Y-132080D02*
X82470D01*
X-165000Y100000D02*
X-155000D01*
X-160000Y95000D02*
Y105000D01*
X-152000Y86000D02*
Y114000D01*
X-168000Y86000D02*
Y114000D01*
X-152000D01*
X-168000Y86000D02*
X-152000D01*
X-145000Y100000D02*
X-135000D01*
X-140000Y95000D02*
Y105000D01*
X-132000Y86000D02*
Y114000D01*
X-148000Y86000D02*
Y114000D01*
X-132000D01*
X-148000Y86000D02*
X-132000D01*
X-125000Y100000D02*
X-115000D01*
X-120000Y95000D02*
Y105000D01*
X-112000Y86000D02*
Y114000D01*
X-128000Y86000D02*
Y114000D01*
X-112000D01*
X-128000Y86000D02*
X-112000D01*
X-125000Y180000D02*
X-115000D01*
X-120000Y175000D02*
Y185000D01*
X-112000Y166000D02*
Y194000D01*
X-128000Y166000D02*
Y194000D01*
X-112000D01*
X-128000Y166000D02*
X-112000D01*
X-145000Y180000D02*
X-135000D01*
X-140000Y175000D02*
Y185000D01*
X-132000Y166000D02*
Y194000D01*
X-148000Y166000D02*
Y194000D01*
X-132000D01*
X-148000Y166000D02*
X-132000D01*
X-165000Y180000D02*
X-155000D01*
X-160000Y175000D02*
Y185000D01*
X-152000Y166000D02*
Y194000D01*
X-168000Y166000D02*
Y194000D01*
X-152000D01*
X-168000Y166000D02*
X-152000D01*
X-157240Y-87280D02*
X-147240D01*
X-152240Y-92280D02*
Y-82280D01*
X-144240Y-101280D02*
Y-73280D01*
X-160240Y-101280D02*
Y-73280D01*
X-144240D01*
X-160240Y-101280D02*
X-144240D01*
X-197240Y-87280D02*
X-187240D01*
X-192240Y-92280D02*
Y-82280D01*
X-184240Y-101280D02*
Y-73280D01*
X-200240Y-101280D02*
Y-73280D01*
X-184240D01*
X-200240Y-101280D02*
X-184240D01*
X-35560Y-280590D02*
Y-270590D01*
X-40560Y-275590D02*
X-30560D01*
X-49560Y-283590D02*
X-21560D01*
X-49560Y-267590D02*
X-21560D01*
Y-283590D02*
Y-267590D01*
X-49560Y-283590D02*
Y-267590D01*
X-8970Y-237460D02*
X1030D01*
X-3970Y-242460D02*
Y-232460D01*
X-11970Y-251460D02*
Y-223460D01*
X4030Y-251460D02*
Y-223460D01*
X-11970Y-251460D02*
X4030D01*
X-11970Y-223460D02*
X4030D01*
X-28970Y-237460D02*
X-18970D01*
X-23970Y-242460D02*
Y-232460D01*
X-31970Y-251460D02*
Y-223460D01*
X-15970Y-251460D02*
Y-223460D01*
X-31970Y-251460D02*
X-15970D01*
X-31970Y-223460D02*
X-15970D01*
X-177240Y-87280D02*
X-167240D01*
X-172240Y-92280D02*
Y-82280D01*
X-164240Y-101280D02*
Y-73280D01*
X-180240Y-101280D02*
Y-73280D01*
X-164240D01*
X-180240Y-101280D02*
X-164240D01*
X25000Y-130000D02*
X35000D01*
X30000Y-135000D02*
Y-125000D01*
X38000Y-144000D02*
Y-116000D01*
X22000Y-144000D02*
Y-116000D01*
X38000D01*
X22000Y-144000D02*
X38000D01*
X5000Y-130000D02*
X15000D01*
X10000Y-135000D02*
Y-125000D01*
X18000Y-144000D02*
Y-116000D01*
X2000Y-144000D02*
Y-116000D01*
X18000D01*
X2000Y-144000D02*
X18000D01*
X-213890Y-173650D02*
X-203890D01*
X-208890Y-178650D02*
Y-168650D01*
X-200890Y-187650D02*
Y-159650D01*
X-216890Y-187650D02*
Y-159650D01*
X-200890D01*
X-216890Y-187650D02*
X-200890D01*
X-193890Y-173650D02*
X-183890D01*
X-188890Y-178650D02*
Y-168650D01*
X-180890Y-187650D02*
Y-159650D01*
X-196890Y-187650D02*
Y-159650D01*
X-180890D01*
X-196890Y-187650D02*
X-180890D01*
X11030Y-237460D02*
X21030D01*
X16030Y-242460D02*
Y-232460D01*
X8030Y-251460D02*
Y-223460D01*
X24030Y-251460D02*
Y-223460D01*
X8030Y-251460D02*
X24030D01*
X8030Y-223460D02*
X24030D01*
X45000Y-130000D02*
X55000D01*
X50000Y-135000D02*
Y-125000D01*
X58000Y-144000D02*
Y-116000D01*
X42000Y-144000D02*
Y-116000D01*
X58000D01*
X42000Y-144000D02*
X58000D01*
X-173890Y-173650D02*
X-163890D01*
X-168890Y-178650D02*
Y-168650D01*
X-160890Y-187650D02*
Y-159650D01*
X-176890Y-187650D02*
Y-159650D01*
X-160890D01*
X-176890Y-187650D02*
X-160890D01*
X-142600Y-223440D02*
Y-213440D01*
X-147600Y-218440D02*
X-137600D01*
X-156600Y-210440D02*
X-128600D01*
X-156600Y-226440D02*
X-128600D01*
X-156600D02*
Y-210440D01*
X-128600Y-226440D02*
Y-210440D01*
D50*
X92290Y-104580D02*
X166790D01*
Y-159580D02*
Y-104580D01*
X92290Y-159580D02*
X166790D01*
X92290D02*
Y-104580D01*
X126160Y61450D02*
X211660D01*
Y-10650D02*
Y61450D01*
X126160Y-10650D02*
X211660D01*
X126160D02*
Y61450D01*
X-83390Y177020D02*
X2110D01*
Y104920D02*
Y177020D01*
X-83390Y104920D02*
X2110D01*
X-83390D02*
Y177020D01*
M02*
