M48
;Layer_Color=9474304
;FILE_FORMAT=4:4
METRIC,LZ
;TYPE=PLATED
T1F00S00C0.7000
T2F00S00C0.8000
T3F00S00C0.9000
T4F00S00C3.2000
%
T01
X0021463Y-0012446
X0024638Y0003048
X00264221Y0008763
X0021209Y0009398
X0011049Y000254
X0012065Y0000381
X0014351Y-0009906
X0015494Y-0008763
X0018415Y-0012617
X0017653Y-001397
X001272Y-0013843
X0006223Y-0015113
X000762Y-0019431
X0007747Y-0010668
X-0002286Y-0011049
X-0005715Y-000887
X-0009862Y-0009584
X-0012954Y-0009478
X-0013062Y-0012617
X-0011079Y-0021082
X-0009144
X-0008763Y-002286
X-000635Y-002159
X-0004064Y-0021463
X-0005862Y-001778
X-001111Y-0026096
X-0012827Y-0002159
X-0011684Y0002413
X-0014224Y00044617
X-0010266Y000925
X-0018267Y0010541
X0004826Y0008636
X-00204387Y00094977
X0002032Y0014097
Y002032
X0000508Y0022479
X-0002159
T02
X00195519Y-0011323
X00238821Y-0013823
X00265491Y-000887
X00222189Y-000637
T03
X00254Y00065633
X002413Y0008763
X002286Y00109627
X-0023241Y001016
X-00250371Y00083639
X-0021445Y00119561
X-00196489Y00137521
X-0004699Y0025654
X-0002159
X0000381
X0002921
X00107135Y00228234
X00126593Y00211907
X0014605Y0019558
X00165508Y00179253
X00184965Y00162927
T04
X0027Y0
X-0027
M30
