G04*
G04 #@! TF.GenerationSoftware,Altium Limited,Altium Designer,18.1.7 (191)*
G04*
G04 Layer_Physical_Order=2*
G04 Layer_Color=16711680*
%FSLAX44Y44*%
%MOMM*%
G71*
G01*
G75*
%ADD10C,0.2540*%
%ADD39R,1.5000X1.5000*%
%ADD40C,1.5000*%
%ADD41P,2.1213X4X365.0*%
%ADD42P,2.1213X4X165.0*%
%ADD43P,2.1213X4X90.0*%
%ADD44C,1.3500*%
%ADD45P,1.9092X4X195.0*%
%ADD46C,0.8000*%
%ADD47C,3.3000*%
D10*
X135890Y-129740D02*
Y-48260D01*
X110490Y-22860D02*
X135890Y-48260D01*
X110490Y-22860D02*
Y25400D01*
X207010Y-116840D02*
Y-105410D01*
X120650Y-19050D02*
X207010Y-105410D01*
X120650Y-19050D02*
Y3810D01*
X207010Y-116840D02*
X214630Y-124460D01*
X76200Y-194310D02*
X77470Y-193040D01*
Y-106680D01*
X58420D02*
X77470D01*
X5080Y-53340D02*
X58420Y-106680D01*
X5080Y-53340D02*
Y224790D01*
X20320Y140970D02*
Y203200D01*
X48260Y86360D02*
X49530D01*
X110490Y25400D01*
X-116840D02*
X-21590Y120650D01*
X-116840Y24130D02*
Y25400D01*
X-21590Y120650D02*
Y224790D01*
X203200Y85090D02*
X212090Y93980D01*
X203200Y58420D02*
Y85090D01*
Y58420D02*
X233680Y27940D01*
Y-88900D02*
Y27940D01*
X223520Y-99060D02*
X233680Y-88900D01*
X223520Y-166370D02*
Y-99060D01*
X175260Y-214630D02*
X223520Y-166370D01*
X-40640Y-214630D02*
X175260D01*
X264221Y87630D02*
X265944D01*
X275590Y77984D01*
Y59690D02*
Y77984D01*
X246380Y30480D02*
X275590Y59690D01*
X-77770Y-177800D02*
X-58620D01*
X-110790Y-210820D02*
X-77770Y-177800D01*
X-58620D02*
X-22860Y-142040D01*
Y-110490D01*
X-200Y-88700D02*
X62230Y-151130D01*
X-57150Y-88700D02*
X-200D01*
X-37510Y-95840D02*
X-22860Y-110490D01*
X-98620Y-95840D02*
X-37510D01*
X-129540Y-94780D02*
X-128270Y-93510D01*
Y-21590D01*
X-102660Y52280D02*
Y92500D01*
X-128270Y26670D02*
X-102660Y52280D01*
X-128270Y-21590D02*
Y26670D01*
X-182670Y85047D02*
X-142240Y44617D01*
X-182670Y85047D02*
Y105410D01*
X176530Y-139700D02*
Y-119380D01*
X156210Y-99060D02*
X176530Y-119380D01*
X143510Y-99060D02*
X156210D01*
X154940Y-87630D02*
X184150Y-116840D01*
Y-126170D02*
Y-116840D01*
X127200Y-138430D02*
X135890Y-129740D01*
X-204387Y94977D02*
X-139700Y30290D01*
Y-117090D02*
Y30290D01*
Y-117090D02*
X-130620Y-126170D01*
X-76200Y-228600D02*
X-63500Y-215900D01*
X-87630Y-228600D02*
X-76200D01*
X-101600Y-220980D02*
X-91440Y-210820D01*
X-101600Y-251460D02*
Y-220980D01*
X-111100Y-260960D02*
X-101600Y-251460D01*
D39*
X-46990Y256540D02*
D03*
D40*
X-21590D02*
D03*
X3810D02*
D03*
X29210D02*
D03*
X126593Y211907D02*
D03*
X146050Y195580D02*
D03*
X165508Y179253D02*
D03*
X184965Y162927D02*
D03*
X228600Y109627D02*
D03*
X241300Y87630D02*
D03*
X-232410Y101600D02*
D03*
X-214450Y119561D02*
D03*
X-196489Y137521D02*
D03*
D41*
X107135Y228234D02*
D03*
D42*
X254000Y65633D02*
D03*
D43*
X-250371Y83639D02*
D03*
D44*
X222189Y-63700D02*
D03*
X195519Y-113230D02*
D03*
D45*
X265491Y-88700D02*
D03*
X238821Y-138230D02*
D03*
D46*
X76200Y-194310D02*
D03*
X77470Y-106680D02*
D03*
X20320Y140970D02*
D03*
Y203200D02*
D03*
X5080Y224790D02*
D03*
X48260Y86360D02*
D03*
X212090Y93980D02*
D03*
X-40640Y-214630D02*
D03*
X246380Y30480D02*
D03*
X264221Y87630D02*
D03*
X120650Y3810D02*
D03*
X-57150Y-88700D02*
D03*
X-98620Y-95840D02*
D03*
X-22860Y-110490D02*
D03*
X-110790Y-210820D02*
D03*
X-58620Y-177800D02*
D03*
X-129540Y-94780D02*
D03*
X-128270Y-21590D02*
D03*
X-102660Y92500D02*
D03*
X-142240Y44617D02*
D03*
X-182670Y105410D02*
D03*
X214630Y-124460D02*
D03*
X143510Y-99060D02*
D03*
X176530Y-139700D02*
D03*
X184150Y-126170D02*
D03*
X154940Y-87630D02*
D03*
X-116840Y24130D02*
D03*
X-21590Y224790D02*
D03*
X-130620Y-126170D02*
D03*
X-204387Y94977D02*
D03*
X62230Y-151130D02*
D03*
X127200Y-138430D02*
D03*
X110490Y25400D02*
D03*
X-63500Y-215900D02*
D03*
X-87630Y-228600D02*
D03*
X-91440Y-210820D02*
D03*
X-111100Y-260960D02*
D03*
D47*
X-270000Y0D02*
D03*
X270000D02*
D03*
M02*
