G04*
G04 #@! TF.GenerationSoftware,Altium Limited,Altium Designer,18.1.7 (191)*
G04*
G04 Layer_Color=255*
%FSLAX44Y44*%
%MOMM*%
G71*
G01*
G75*
%ADD12R,1.4000X1.2000*%
%ADD13R,1.4000X1.1000*%
%ADD14R,3.5000X2.0000*%
%ADD15R,1.1000X1.4000*%
%ADD16R,1.2000X0.3000*%
%ADD17R,0.3000X1.2000*%
%ADD18R,1.5250X0.6500*%
%ADD19R,1.4500X0.9500*%
%ADD20R,1.4500X3.2500*%
%ADD39R,1.5000X1.5000*%
%ADD40C,1.5000*%
%ADD41P,2.1213X4X365.0*%
%ADD42P,2.1213X4X165.0*%
%ADD43P,2.1213X4X90.0*%
%ADD44C,1.3500*%
%ADD45P,1.9092X4X195.0*%
D12*
X-86930Y-260960D02*
D03*
X-62930D02*
D03*
Y-241960D02*
D03*
X-86930D02*
D03*
D13*
X77470Y-139580D02*
D03*
Y-124580D02*
D03*
X-160000Y107500D02*
D03*
Y92500D02*
D03*
X-140000Y107500D02*
D03*
Y92500D02*
D03*
X-120000Y107500D02*
D03*
Y92500D02*
D03*
Y187500D02*
D03*
Y172500D02*
D03*
X-140000Y187500D02*
D03*
Y172500D02*
D03*
X-160000Y187500D02*
D03*
Y172500D02*
D03*
X-152240Y-79780D02*
D03*
Y-94780D02*
D03*
X-192240Y-79780D02*
D03*
Y-94780D02*
D03*
X-3970Y-244960D02*
D03*
Y-229960D02*
D03*
X-23970Y-244960D02*
D03*
Y-229960D02*
D03*
X-172240Y-79780D02*
D03*
Y-94780D02*
D03*
X30000Y-122500D02*
D03*
Y-137500D02*
D03*
X10000Y-122500D02*
D03*
Y-137500D02*
D03*
X-208890Y-166150D02*
D03*
Y-181150D02*
D03*
X-188890Y-166150D02*
D03*
Y-181150D02*
D03*
X16030Y-244960D02*
D03*
Y-229960D02*
D03*
X50000Y-122500D02*
D03*
Y-137500D02*
D03*
X-168890Y-166150D02*
D03*
Y-181150D02*
D03*
D14*
X-180000Y-50000D02*
D03*
Y-20000D02*
D03*
Y10000D02*
D03*
Y40000D02*
D03*
D15*
X-28060Y-275590D02*
D03*
X-43060D02*
D03*
X213200Y-177800D02*
D03*
X193200D02*
D03*
X-208120Y-128270D02*
D03*
X-188120D02*
D03*
X-150100Y-218440D02*
D03*
X-135100D02*
D03*
D16*
X-113620Y-181170D02*
D03*
Y-176170D02*
D03*
Y-171170D02*
D03*
Y-166170D02*
D03*
Y-161170D02*
D03*
Y-156170D02*
D03*
Y-151170D02*
D03*
Y-146170D02*
D03*
Y-141170D02*
D03*
Y-136170D02*
D03*
Y-131170D02*
D03*
Y-126170D02*
D03*
X-28620D02*
D03*
Y-131170D02*
D03*
Y-136170D02*
D03*
Y-141170D02*
D03*
Y-146170D02*
D03*
Y-151170D02*
D03*
Y-156170D02*
D03*
Y-161170D02*
D03*
Y-166170D02*
D03*
Y-171170D02*
D03*
Y-176170D02*
D03*
Y-181170D02*
D03*
D17*
X-98620Y-111170D02*
D03*
X-93620D02*
D03*
X-88620D02*
D03*
X-83620D02*
D03*
X-78620D02*
D03*
X-73620D02*
D03*
X-68620D02*
D03*
X-63620D02*
D03*
X-58620D02*
D03*
X-53620D02*
D03*
X-48620D02*
D03*
X-43620D02*
D03*
Y-196170D02*
D03*
X-48620D02*
D03*
X-53620D02*
D03*
X-58620D02*
D03*
X-63620D02*
D03*
X-68620D02*
D03*
X-73620D02*
D03*
X-78620D02*
D03*
X-83620D02*
D03*
X-88620D02*
D03*
X-93620D02*
D03*
X-98620D02*
D03*
D18*
X102420Y-113030D02*
D03*
Y-125730D02*
D03*
Y-138430D02*
D03*
Y-151130D02*
D03*
X156660D02*
D03*
Y-138430D02*
D03*
Y-125730D02*
D03*
Y-113030D02*
D03*
D19*
X135910Y48300D02*
D03*
Y25400D02*
D03*
Y2500D02*
D03*
X-73640Y163870D02*
D03*
Y140970D02*
D03*
Y118070D02*
D03*
D20*
X201910Y25400D02*
D03*
X-7640Y140970D02*
D03*
D39*
X-46990Y256540D02*
D03*
D40*
X-21590D02*
D03*
X3810D02*
D03*
X29210D02*
D03*
X126593Y211907D02*
D03*
X146050Y195580D02*
D03*
X165508Y179253D02*
D03*
X184965Y162927D02*
D03*
X228600Y109627D02*
D03*
X241300Y87630D02*
D03*
X-232410Y101600D02*
D03*
X-214450Y119561D02*
D03*
X-196489Y137521D02*
D03*
D41*
X107135Y228234D02*
D03*
D42*
X254000Y65633D02*
D03*
D43*
X-250371Y83639D02*
D03*
D44*
X222189Y-63700D02*
D03*
X195519Y-113230D02*
D03*
D45*
X265491Y-88700D02*
D03*
X238821Y-138230D02*
D03*
M02*
