G04*
G04 #@! TF.GenerationSoftware,Altium Limited,Altium Designer,18.1.7 (191)*
G04*
G04 Layer_Physical_Order=1*
G04 Layer_Color=255*
%FSLAX44Y44*%
%MOMM*%
G71*
G01*
G75*
%ADD10C,0.2540*%
%ADD12R,1.4000X1.2000*%
%ADD13R,1.4000X1.1000*%
%ADD14R,3.5000X2.0000*%
%ADD15R,1.1000X1.4000*%
%ADD16R,1.2000X0.3000*%
%ADD17R,0.3000X1.2000*%
%ADD18R,1.5250X0.6500*%
%ADD19R,1.4500X0.9500*%
%ADD20R,1.4500X3.2500*%
%ADD39R,1.5000X1.5000*%
%ADD40C,1.5000*%
%ADD41P,2.1213X4X365.0*%
%ADD42P,2.1213X4X165.0*%
%ADD43P,2.1213X4X90.0*%
%ADD44C,1.3500*%
%ADD45P,1.9092X4X195.0*%
%ADD46C,0.8000*%
%ADD47C,3.3000*%
D10*
X300000Y0D02*
G03*
X300000Y0I-300000J0D01*
G01*
X116880Y2500D02*
X135910D01*
X64770Y-205740D02*
X76200Y-194310D01*
X-34050Y-205740D02*
X64770D01*
X-43620Y-196170D02*
X-34050Y-205740D01*
X57970Y-68580D02*
X102420Y-113030D01*
X-67310Y-68580D02*
X57970D01*
X-83620Y-84890D02*
X-67310Y-68580D01*
X-7640Y140970D02*
X20320D01*
X194710Y-113030D02*
X222189Y-85551D01*
X66040Y-125730D02*
X102420D01*
X-209390Y-128270D02*
Y-111930D01*
X29210Y212090D02*
Y256540D01*
X20320Y203200D02*
X29210Y212090D01*
X5080Y224790D02*
Y255270D01*
X3810Y256540D02*
X5080Y255270D01*
X-41930Y86360D02*
X48260D01*
X-73640Y118070D02*
X-41930Y86360D01*
X212953Y93980D02*
X228600Y109627D01*
X-48620Y-206650D02*
X-40640Y-214630D01*
X-48620Y-206650D02*
Y-196170D01*
X246380Y-69589D02*
X265491Y-88700D01*
X246380Y-69589D02*
Y30480D01*
X241300Y87630D02*
X264221D01*
X238821Y50454D02*
X254000Y65633D01*
X238821Y3051D02*
Y50454D01*
X231540Y-4230D02*
X238821Y3051D01*
X254000Y57190D02*
Y59270D01*
X231540Y-54349D02*
Y-4230D01*
X-28620Y-126170D02*
Y-116250D01*
X-22860Y-110490D01*
X99509Y19871D02*
X116880Y2500D01*
X99509Y19871D02*
Y77470D01*
X-78620Y-96400D02*
X-70920Y-88700D01*
X-57150D01*
X-152240Y-79780D02*
X-114680D01*
X-98620Y-95840D01*
Y-111170D02*
Y-95840D01*
X-104290Y-204320D02*
Y-190500D01*
X-110790Y-210820D02*
X-104290Y-204320D01*
X-113620Y-181170D02*
X-104290Y-190500D01*
X-58620Y-196170D02*
Y-177800D01*
X-63620Y-196170D02*
Y-182760D01*
X-69970Y-176410D02*
X-63620Y-182760D01*
X-88620Y-176410D02*
X-69970D01*
X-93600Y-171430D02*
X-88620Y-176410D01*
X-113620Y-176170D02*
X-98340D01*
X-93600Y-171430D01*
Y-137500D01*
X-87270Y-131170D01*
X-28620D01*
X-93620Y-124820D02*
X-87270Y-131170D01*
X-93620Y-124820D02*
Y-111170D01*
X105186Y190500D02*
X126593Y211907D01*
X12700Y190500D02*
X105186D01*
X-21590Y224790D02*
X12700Y190500D01*
X-105170Y172500D02*
X-73640Y140970D01*
X-120000Y172500D02*
X-105170D01*
X-152240Y-94780D02*
X-129540D01*
X-178410Y-21590D02*
X-128270D01*
X-180000Y-20000D02*
X-178410Y-21590D01*
X-120000Y92500D02*
X-102660D01*
X-142240Y44617D02*
X-140780Y46077D01*
X-146857Y40000D02*
X-142240Y44617D01*
X-180000Y40000D02*
X-146857D01*
X-182670Y105410D02*
Y149830D01*
X-160000Y172500D01*
X214630Y-124460D02*
X225051D01*
X238821Y-138230D01*
X143960Y-125730D02*
X156660Y-113030D01*
X102420Y-125730D02*
X143960D01*
X71120Y120650D02*
X146050Y195580D01*
X71120Y-50800D02*
Y120650D01*
Y-50800D02*
X119380Y-99060D01*
X182880Y-125730D02*
X213200Y-156050D01*
X83820Y97566D02*
X165508Y179253D01*
X83820Y-45720D02*
Y97566D01*
Y-45720D02*
X125730Y-87630D01*
X119380Y-99060D02*
X143510D01*
X176530Y-139700D02*
X193200Y-156370D01*
X175260Y-138430D02*
X176530Y-139700D01*
X193200Y-177800D02*
Y-156370D01*
X156660Y-138430D02*
X175260D01*
X156660Y-125730D02*
X182880D01*
X213200Y-177800D02*
Y-156050D01*
X125730Y-87630D02*
X154940D01*
X99509Y77470D02*
X184965Y162927D01*
X52070Y278130D02*
X83820Y246380D01*
X-43180Y278130D02*
X52070D01*
X-46990Y274320D02*
X-43180Y278130D01*
X124660Y246380D02*
X184965Y186075D01*
X83820Y246380D02*
X124660D01*
X184965Y162927D02*
Y186075D01*
X-46990Y256540D02*
Y274320D01*
X85456Y228234D02*
X107135D01*
X57150Y256540D02*
X85456Y228234D01*
X29210Y256540D02*
X57150D01*
X-130970Y10000D02*
X-116840Y24130D01*
X-180000Y10000D02*
X-130970D01*
X-88620Y-111170D02*
Y7340D01*
X-152400Y71120D02*
X-88620Y7340D01*
X-201930Y71120D02*
X-152400D01*
X-21590Y224790D02*
Y256540D01*
X-222250Y24481D02*
X-206731Y40000D01*
X-222250Y-49770D02*
Y24481D01*
Y-49770D02*
X-192240Y-79780D01*
X-206731Y40000D02*
X-180000D01*
X-250371Y83639D02*
X-206731Y40000D01*
X-232410Y101600D02*
X-201930Y71120D01*
X-130620Y-126170D02*
X-113620D01*
X-214450Y105040D02*
X-204387Y94977D01*
X-214450Y105040D02*
Y119561D01*
X-178260Y187500D02*
X-160000D01*
X-196489Y169271D02*
X-178260Y187500D01*
X-196489Y137521D02*
Y169271D01*
Y106319D02*
Y137521D01*
Y106319D02*
X-182670Y92500D01*
X-160000D01*
X62230Y-151130D02*
X102420D01*
X-78620Y-111170D02*
Y-96400D01*
X-83620Y-111170D02*
Y-84890D01*
X127200Y-138430D02*
Y-138430D01*
X102420Y-138430D02*
X127200D01*
X110490Y25400D02*
X135910D01*
X-120000Y107500D02*
X-99060D01*
X-88490Y118070D01*
X-73640D01*
X111760Y78740D02*
X120650Y87630D01*
X111760Y49550D02*
Y78740D01*
Y49550D02*
X135910Y25400D01*
X120650Y87630D02*
X241300D01*
X238821Y-138230D02*
Y-133289D01*
X222189Y-63700D02*
X231540Y-54349D01*
X201910Y25400D02*
X231540Y-4230D01*
X222189Y-85551D02*
Y-63700D01*
X-129540Y-161170D02*
X-113620D01*
X-162440Y-128270D02*
X-129540Y-161170D01*
X-188120Y-128270D02*
X-162440D01*
X-219710Y-138590D02*
X-209390Y-128270D01*
X-219710Y-155330D02*
Y-138590D01*
Y-155330D02*
X-208890Y-166150D01*
X-209390Y-111930D02*
X-192240Y-94780D01*
X-87630Y-241260D02*
X-86930Y-241960D01*
X-87630Y-241260D02*
Y-228600D01*
X-86450Y-218440D02*
X-62930Y-241960D01*
X-135100Y-218440D02*
X-86450D01*
X-63620Y-215780D02*
X-63500Y-215900D01*
X-63620Y-215780D02*
Y-196170D01*
X-36740Y-229960D02*
X-23970D01*
X-58620Y-208080D02*
X-36740Y-229960D01*
X-58620Y-208080D02*
Y-196170D01*
X-142240Y-250190D02*
X-95160D01*
X-150100Y-242330D02*
X-142240Y-250190D01*
X-150100Y-242330D02*
Y-218440D01*
X-91440Y-210820D02*
X-82550D01*
X-78620Y-206890D01*
Y-196170D01*
X-111100Y-260960D02*
X-86930D01*
X-72300Y-275590D01*
X-43060D01*
X-62930Y-241960D02*
Y-228020D01*
X-73620Y-217330D02*
X-62930Y-228020D01*
X-73620Y-217330D02*
Y-196170D01*
X-97270Y187500D02*
X-73640Y163870D01*
X-120000Y187500D02*
X-97270D01*
X-30540Y163870D02*
X-7640Y140970D01*
X-73640Y163870D02*
X-30540D01*
X-113640Y-181150D02*
X-113620Y-181170D01*
X-168890Y-181150D02*
X-113640D01*
X-142600Y-176170D02*
X-113620D01*
X-152620Y-166150D02*
X-142600Y-176170D01*
X-168890Y-166150D02*
X-152620D01*
X-188890D02*
X-168890D01*
X-208890D02*
X-188890D01*
Y-181150D02*
X-168890D01*
X-208890D02*
X-188890D01*
X-209960D02*
X-208890D01*
X-212040Y-183230D02*
X-209960Y-181150D01*
X-9820Y-137500D02*
X10000D01*
X-16150Y-131170D02*
X-9820Y-137500D01*
X-28620Y-131170D02*
X-16150D01*
X6330Y-126170D02*
X10000Y-122500D01*
X-28620Y-126170D02*
X6330D01*
X16030Y-260830D02*
Y-244960D01*
X1270Y-275590D02*
X16030Y-260830D01*
X-28060Y-275590D02*
X1270D01*
X-3970Y-244960D02*
X16030D01*
X-95160Y-250190D02*
X-86930Y-241960D01*
X179010Y48300D02*
X201910Y25400D01*
X135910Y48300D02*
X179010D01*
X156660Y-113030D02*
X194710D01*
X54270Y-137500D02*
X66040Y-125730D01*
X50000Y-137500D02*
X54270D01*
X101270Y-139580D02*
X102420Y-138430D01*
X77470Y-139580D02*
X101270D01*
X30000Y-137500D02*
X50000D01*
X10000D02*
X30000D01*
Y-122500D02*
X50000D01*
X10000D02*
X30000D01*
X-140000Y92500D02*
X-120000D01*
X-160000D02*
X-140000D01*
Y107500D02*
X-120000D01*
X-160000D02*
X-140000D01*
Y172500D02*
X-120000D01*
X-160000D02*
X-140000D01*
Y187500D02*
X-120000D01*
X-160000D02*
X-140000D01*
X-172240Y-94780D02*
X-152240D01*
X-192240D02*
X-172240D01*
Y-79780D02*
X-152240D01*
X-192240D02*
X-172240D01*
X-3970Y-229960D02*
X16030D01*
X-23970D02*
X-3970D01*
X-81930Y-241960D02*
X-62930Y-260960D01*
X-86930Y-241960D02*
X-81930D01*
X-39970Y-260960D02*
X-23970Y-244960D01*
X-62930Y-260960D02*
X-39970D01*
X-23970Y-244960D02*
X-3970D01*
D12*
X-86930Y-260960D02*
D03*
X-62930D02*
D03*
Y-241960D02*
D03*
X-86930D02*
D03*
D13*
X77470Y-139580D02*
D03*
Y-124580D02*
D03*
X-160000Y107500D02*
D03*
Y92500D02*
D03*
X-140000Y107500D02*
D03*
Y92500D02*
D03*
X-120000Y107500D02*
D03*
Y92500D02*
D03*
Y187500D02*
D03*
Y172500D02*
D03*
X-140000Y187500D02*
D03*
Y172500D02*
D03*
X-160000Y187500D02*
D03*
Y172500D02*
D03*
X-152240Y-79780D02*
D03*
Y-94780D02*
D03*
X-192240Y-79780D02*
D03*
Y-94780D02*
D03*
X-3970Y-244960D02*
D03*
Y-229960D02*
D03*
X-23970Y-244960D02*
D03*
Y-229960D02*
D03*
X-172240Y-79780D02*
D03*
Y-94780D02*
D03*
X30000Y-122500D02*
D03*
Y-137500D02*
D03*
X10000Y-122500D02*
D03*
Y-137500D02*
D03*
X-208890Y-166150D02*
D03*
Y-181150D02*
D03*
X-188890Y-166150D02*
D03*
Y-181150D02*
D03*
X16030Y-244960D02*
D03*
Y-229960D02*
D03*
X50000Y-122500D02*
D03*
Y-137500D02*
D03*
X-168890Y-166150D02*
D03*
Y-181150D02*
D03*
D14*
X-180000Y-50000D02*
D03*
Y-20000D02*
D03*
Y10000D02*
D03*
Y40000D02*
D03*
D15*
X-28060Y-275590D02*
D03*
X-43060D02*
D03*
X213200Y-177800D02*
D03*
X193200D02*
D03*
X-208120Y-128270D02*
D03*
X-188120D02*
D03*
X-150100Y-218440D02*
D03*
X-135100D02*
D03*
D16*
X-113620Y-181170D02*
D03*
Y-176170D02*
D03*
Y-171170D02*
D03*
Y-166170D02*
D03*
Y-161170D02*
D03*
Y-156170D02*
D03*
Y-151170D02*
D03*
Y-146170D02*
D03*
Y-141170D02*
D03*
Y-136170D02*
D03*
Y-131170D02*
D03*
Y-126170D02*
D03*
X-28620D02*
D03*
Y-131170D02*
D03*
Y-136170D02*
D03*
Y-141170D02*
D03*
Y-146170D02*
D03*
Y-151170D02*
D03*
Y-156170D02*
D03*
Y-161170D02*
D03*
Y-166170D02*
D03*
Y-171170D02*
D03*
Y-176170D02*
D03*
Y-181170D02*
D03*
D17*
X-98620Y-111170D02*
D03*
X-93620D02*
D03*
X-88620D02*
D03*
X-83620D02*
D03*
X-78620D02*
D03*
X-73620D02*
D03*
X-68620D02*
D03*
X-63620D02*
D03*
X-58620D02*
D03*
X-53620D02*
D03*
X-48620D02*
D03*
X-43620D02*
D03*
Y-196170D02*
D03*
X-48620D02*
D03*
X-53620D02*
D03*
X-58620D02*
D03*
X-63620D02*
D03*
X-68620D02*
D03*
X-73620D02*
D03*
X-78620D02*
D03*
X-83620D02*
D03*
X-88620D02*
D03*
X-93620D02*
D03*
X-98620D02*
D03*
D18*
X102420Y-113030D02*
D03*
Y-125730D02*
D03*
Y-138430D02*
D03*
Y-151130D02*
D03*
X156660D02*
D03*
Y-138430D02*
D03*
Y-125730D02*
D03*
Y-113030D02*
D03*
D19*
X135910Y48300D02*
D03*
Y25400D02*
D03*
Y2500D02*
D03*
X-73640Y163870D02*
D03*
Y140970D02*
D03*
Y118070D02*
D03*
D20*
X201910Y25400D02*
D03*
X-7640Y140970D02*
D03*
D39*
X-46990Y256540D02*
D03*
D40*
X-21590D02*
D03*
X3810D02*
D03*
X29210D02*
D03*
X126593Y211907D02*
D03*
X146050Y195580D02*
D03*
X165508Y179253D02*
D03*
X184965Y162927D02*
D03*
X228600Y109627D02*
D03*
X241300Y87630D02*
D03*
X-232410Y101600D02*
D03*
X-214450Y119561D02*
D03*
X-196489Y137521D02*
D03*
D41*
X107135Y228234D02*
D03*
D42*
X254000Y65633D02*
D03*
D43*
X-250371Y83639D02*
D03*
D44*
X222189Y-63700D02*
D03*
X195519Y-113230D02*
D03*
D45*
X265491Y-88700D02*
D03*
X238821Y-138230D02*
D03*
D46*
X76200Y-194310D02*
D03*
X77470Y-106680D02*
D03*
X20320Y140970D02*
D03*
Y203200D02*
D03*
X5080Y224790D02*
D03*
X48260Y86360D02*
D03*
X212090Y93980D02*
D03*
X-40640Y-214630D02*
D03*
X246380Y30480D02*
D03*
X264221Y87630D02*
D03*
X120650Y3810D02*
D03*
X-57150Y-88700D02*
D03*
X-98620Y-95840D02*
D03*
X-22860Y-110490D02*
D03*
X-110790Y-210820D02*
D03*
X-58620Y-177800D02*
D03*
X-129540Y-94780D02*
D03*
X-128270Y-21590D02*
D03*
X-102660Y92500D02*
D03*
X-142240Y44617D02*
D03*
X-182670Y105410D02*
D03*
X214630Y-124460D02*
D03*
X143510Y-99060D02*
D03*
X176530Y-139700D02*
D03*
X184150Y-126170D02*
D03*
X154940Y-87630D02*
D03*
X-116840Y24130D02*
D03*
X-21590Y224790D02*
D03*
X-130620Y-126170D02*
D03*
X-204387Y94977D02*
D03*
X62230Y-151130D02*
D03*
X127200Y-138430D02*
D03*
X110490Y25400D02*
D03*
X-63500Y-215900D02*
D03*
X-87630Y-228600D02*
D03*
X-91440Y-210820D02*
D03*
X-111100Y-260960D02*
D03*
D47*
X-270000Y0D02*
D03*
X270000D02*
D03*
M02*
