G04*
G04 #@! TF.GenerationSoftware,Altium Limited,Altium Designer,18.1.7 (191)*
G04*
G04 Layer_Color=16711935*
%FSLAX44Y44*%
%MOMM*%
G71*
G01*
G75*
%ADD30R,1.7032X1.7032*%
%ADD31C,1.7032*%
%ADD32P,2.4087X4X365.0*%
%ADD33P,2.4087X4X165.0*%
%ADD34P,2.4087X4X90.0*%
%ADD35C,1.5532*%
%ADD36P,2.1966X4X195.0*%
%ADD37C,1.0032*%
%ADD38C,3.5032*%
D30*
X-46990Y256540D02*
D03*
D31*
X-21590D02*
D03*
X3810D02*
D03*
X29210D02*
D03*
X126593Y211907D02*
D03*
X146050Y195580D02*
D03*
X165508Y179253D02*
D03*
X184965Y162927D02*
D03*
X228600Y109627D02*
D03*
X241300Y87630D02*
D03*
X-232410Y101600D02*
D03*
X-214450Y119561D02*
D03*
X-196489Y137521D02*
D03*
D32*
X107135Y228234D02*
D03*
D33*
X254000Y65633D02*
D03*
D34*
X-250371Y83639D02*
D03*
D35*
X222189Y-63700D02*
D03*
X195519Y-113230D02*
D03*
D36*
X265491Y-88700D02*
D03*
X238821Y-138230D02*
D03*
D37*
X76200Y-194310D02*
D03*
X77470Y-106680D02*
D03*
X20320Y140970D02*
D03*
Y203200D02*
D03*
X5080Y224790D02*
D03*
X48260Y86360D02*
D03*
X212090Y93980D02*
D03*
X-40640Y-214630D02*
D03*
X246380Y30480D02*
D03*
X264221Y87630D02*
D03*
X120650Y3810D02*
D03*
X-57150Y-88700D02*
D03*
X-98620Y-95840D02*
D03*
X-22860Y-110490D02*
D03*
X-110790Y-210820D02*
D03*
X-58620Y-177800D02*
D03*
X-129540Y-94780D02*
D03*
X-128270Y-21590D02*
D03*
X-102660Y92500D02*
D03*
X-142240Y44617D02*
D03*
X-182670Y105410D02*
D03*
X214630Y-124460D02*
D03*
X143510Y-99060D02*
D03*
X176530Y-139700D02*
D03*
X184150Y-126170D02*
D03*
X154940Y-87630D02*
D03*
X-116840Y24130D02*
D03*
X-21590Y224790D02*
D03*
X-130620Y-126170D02*
D03*
X-204387Y94977D02*
D03*
X62230Y-151130D02*
D03*
X127200Y-138430D02*
D03*
X110490Y25400D02*
D03*
X-63500Y-215900D02*
D03*
X-87630Y-228600D02*
D03*
X-91440Y-210820D02*
D03*
X-111100Y-260960D02*
D03*
D38*
X-270000Y0D02*
D03*
X270000D02*
D03*
M02*
